<?xml version="1.0" standalone="no"?>
<!DOCTYPE svg PUBLIC "-//W3C//DTD SVG 20010904//EN"
 "http://www.w3.org/TR/2001/REC-SVG-20010904/DTD/svg10.dtd">
<svg version="1.0" xmlns="http://www.w3.org/2000/svg"
 width="1216.000000pt" height="1216.000000pt" viewBox="0 0 1216.000000 1216.000000"
 preserveAspectRatio="xMidYMid meet">
<metadata>
Created by potrace 1.14, written by Peter Selinger 2001-2017
</metadata>
<g transform="translate(0.000000,1216.000000) scale(0.100000,-0.100000)"
fill="#000000" stroke="none">
<path d="M5299 12157 c-2 -3 -35 -7 -74 -11 -38 -3 -83 -8 -100 -11 -89 -15
-108 -18 -161 -29 -105 -21 -267 -70 -384 -116 -83 -32 -215 -94 -218 -102 -2
-5 -12 -8 -23 -8 -10 0 -19 -4 -19 -10 0 -5 -5 -10 -12 -10 -6 0 -45 -21 -87
-47 -42 -27 -83 -52 -92 -58 -46 -28 -162 -115 -234 -175 -51 -42 -238 -232
-287 -290 -91 -110 -199 -265 -251 -360 -10 -19 -23 -39 -28 -45 -5 -5 -9 -17
-9 -26 0 -10 -3 -19 -8 -21 -18 -8 -153 -335 -157 -380 0 -3 -3 -10 -8 -14 -4
-4 -7 -18 -7 -31 0 -13 -4 -23 -8 -23 -4 0 -9 -13 -10 -30 -1 -16 -6 -40 -12
-54 -5 -13 -14 -50 -19 -83 -6 -32 -13 -69 -16 -83 -3 -14 -8 -45 -11 -70 -3
-25 -8 -56 -12 -70 -4 -14 -7 -2149 -9 -4745 -1 -4819 -2 -4752 30 -4850 9
-26 53 -110 60 -113 4 -2 7 -10 7 -18 0 -8 5 -14 10 -14 6 0 10 -6 10 -12 1
-17 94 -107 150 -144 110 -74 215 -103 359 -100 116 2 204 29 303 92 114 73
205 183 243 294 1 3 4 12 8 20 29 72 31 118 32 1057 1 524 3 955 6 957 3 3
599 7 1324 9 726 2 1345 7 1375 11 99 13 312 55 350 68 19 7 101 31 116 34 48
9 244 90 359 149 115 58 305 171 325 194 3 4 32 26 65 50 114 84 310 277 415
408 44 55 180 249 180 257 0 1 27 51 60 110 33 59 60 110 60 112 0 3 9 25 20
50 21 46 37 84 39 96 1 4 10 28 21 54 28 63 72 213 86 288 2 16 7 32 9 36 4 7
6 17 20 110 4 25 9 54 12 65 14 67 18 203 18 640 0 487 -2 542 -29 713 -6 33
-22 114 -35 167 -6 22 -10 40 -10 40 0 0 -2 7 -4 15 -3 8 -15 49 -27 90 -107
363 -315 707 -600 996 l-109 111 67 65 c163 158 276 298 391 482 48 77 121
216 121 232 0 5 5 15 11 21 28 28 131 320 164 463 23 101 24 108 31 160 3 25
8 48 10 51 27 46 27 1218 -1 1301 -2 7 -6 31 -9 53 -13 100 -50 249 -96 385
-40 117 -56 154 -131 305 -68 139 -77 155 -144 254 -28 41 -54 82 -60 90 -5 9
-12 18 -15 21 -3 3 -21 25 -40 50 -121 157 -317 345 -485 466 -138 100 -369
234 -402 234 -7 0 -13 5 -13 10 0 6 -8 10 -18 10 -10 0 -22 4 -28 9 -5 4 -22
13 -39 19 -16 6 -68 24 -115 42 -47 17 -92 33 -100 35 -8 1 -58 14 -110 28
-52 14 -111 28 -130 31 -19 3 -44 7 -55 10 -11 2 -42 7 -70 11 -27 4 -61 9
-75 12 -29 6 -1654 16 -1661 10z m1559 -1226 c95 -14 235 -52 302 -83 65 -29
164 -80 170 -87 3 -3 32 -24 64 -46 57 -38 196 -168 245 -229 57 -71 187 -299
190 -334 1 -4 8 -28 16 -53 9 -25 17 -54 19 -65 3 -10 9 -40 15 -66 6 -26 14
-68 17 -95 9 -66 11 -806 2 -868 -13 -97 -17 -120 -23 -150 -4 -16 -8 -37 -10
-45 -2 -8 -4 -15 -5 -15 -1 0 -3 -7 -5 -15 -8 -40 -41 -123 -76 -195 -44 -87
-117 -205 -129 -205 -4 0 -11 -9 -16 -20 -9 -20 -112 -129 -155 -165 -101 -83
-218 -152 -364 -215 -25 -11 -86 -29 -114 -35 -11 -2 -24 -6 -29 -8 -4 -3 -27
-8 -52 -11 -25 -3 -56 -9 -70 -12 -46 -12 -2590 -11 -2591 0 -5 57 -2 1867 3
1916 11 102 20 156 33 200 1 3 7 25 14 50 15 55 17 61 74 180 55 117 138 233
226 320 67 67 164 150 174 150 3 0 25 13 49 28 56 38 140 81 188 97 3 1 19 7
35 14 58 25 214 60 292 66 43 4 79 8 80 8 1 1 304 1 675 1 461 -1 699 -5 756
-13z m-3 -4255 c22 -2 40 -5 40 -6 0 -2 16 -5 65 -15 43 -8 51 -10 70 -18 8
-3 33 -11 55 -18 212 -65 446 -239 587 -437 59 -82 133 -212 120 -212 -4 0 -2
-4 4 -8 13 -9 63 -149 80 -227 23 -108 26 -167 26 -575 1 -374 -1 -424 -24
-540 -14 -74 -66 -238 -78 -245 -6 -3 -10 -12 -10 -19 0 -7 -15 -38 -32 -70
-18 -32 -38 -67 -45 -78 -28 -50 -149 -192 -209 -245 -202 -179 -431 -281
-694 -309 -63 -7 -2495 -12 -2535 -6 -20 3 -20 11 -18 1510 0 829 1 1512 2
1518 1 7 370 10 1279 8 702 -2 1295 -5 1317 -8z"/>
</g>
</svg>
